<svg width="34" height="38" viewBox="0 0 34 38" fill="none" xmlns="http://www.w3.org/2000/svg">
<path d="M10.6279 0H14.2801V1.70683H12.1551V3.41367H14.2801V5.1205H10.6279V0ZM15.0097 0H18.6633V1.48517H16.5383V1.78125H18.6633V5.19492H15.0097V3.63692H17.1347V3.33925H15.0097V0ZM19.3943 0H23.045V1.48517H20.92V1.78125H23.045V5.19492H19.3943V3.63692H21.5193V3.33925H19.3943V0Z" fill="white"/>
<path fill-rule="evenodd" clip-rule="evenodd" d="M16.9873 38.0002L7.14992 34.9475L4.25 7.46875H29.75L26.8515 34.9443L16.9873 38.0002ZM9.98325 19.9074L10.2538 23.2767H20.7046L20.3547 27.6467L16.9915 28.6632H16.9887L13.6312 27.6499L13.4158 24.963H10.3884L10.8106 30.2545L16.9873 32.1703L23.1738 30.2545L23.9275 20.8115L24.0012 19.9074L24.5452 13.0848H9.44067L9.7155 16.4557H21.2415L20.9667 19.9074H9.98325Z" fill="white"/>
</svg>
