<svg width="34" height="35" viewBox="0 0 34 35" fill="none" xmlns="http://www.w3.org/2000/svg">
<path d="M12.4893 22.2245L12.5435 22.251L12.6403 22.2976C12.7638 22.3564 12.8883 22.4146 13.0141 22.4706L13.0931 22.5058C13.2374 22.569 13.3825 22.6292 13.5293 22.6872L13.6356 22.7288C13.7712 22.7817 13.909 22.8329 14.0471 22.8815L14.0988 22.8992C14.2504 22.9521 14.4034 23.0013 14.5578 23.0494L14.6689 23.0823C14.8259 23.1299 14.9808 23.1864 15.1428 23.2165C25.4237 25.091 28.4097 17.0383 28.4097 17.0383C25.9015 20.3058 21.4496 21.1679 17.2314 20.2082C17.0717 20.1722 16.9164 20.1222 16.7606 20.076L16.6433 20.0406C16.4914 19.994 16.3402 19.9449 16.1899 19.8932L16.1278 19.8707C15.9938 19.8233 15.8606 19.7739 15.7281 19.7225L15.6162 19.6786C15.4712 19.6216 15.3274 19.5618 15.1848 19.4992L15.0984 19.461C14.9764 19.4059 14.8551 19.3495 14.7345 19.2916L14.629 19.241C14.5345 19.1949 14.4408 19.1457 14.3475 19.0976L14.1596 18.9991C14.0461 18.9381 13.9336 18.875 13.8224 18.8099L13.7085 18.7463C13.5606 18.6588 13.414 18.569 13.2689 18.4769L13.1505 18.3981C13.0451 18.3305 12.9408 18.2612 12.8377 18.1903L12.737 18.1194C12.6375 18.0491 12.539 17.9779 12.4414 17.9056L12.3104 17.8064C12.2206 17.7381 12.1317 17.6687 12.0438 17.5982L11.9248 17.5026C11.8128 17.4107 11.702 17.3174 11.5923 17.2228L11.5561 17.1921C11.4377 17.0884 11.321 16.9828 11.2062 16.8751L11.1078 16.7804C11.0225 16.6996 10.939 16.6181 10.8566 16.5345L10.7582 16.4361C10.6538 16.3292 10.5511 16.2206 10.4502 16.1104L10.435 16.0941C10.3286 15.9776 10.2244 15.8591 10.1225 15.7386L10.0407 15.6413C9.96476 15.5499 9.88938 15.4571 9.81597 15.3634L9.73357 15.261C9.64538 15.1471 9.55884 15.0319 9.47397 14.9154C7.13229 11.721 6.29079 7.31517 8.1625 3.69689L6.50341 5.8012C4.37744 8.85642 4.64238 12.8316 6.26604 16.0784L6.385 16.3093L6.46122 16.4555L6.50847 16.5396L6.59313 16.6912C6.64347 16.7801 6.69494 16.8684 6.74782 16.9567L6.83641 17.1027C6.89491 17.1972 6.95482 17.2905 7.01641 17.3839L7.09291 17.5026C7.17757 17.6286 7.26419 17.7546 7.35335 17.8784L7.36094 17.8882L7.40482 17.9475C7.48216 18.0541 7.56175 18.1593 7.64219 18.2634L7.73163 18.377C7.80335 18.4673 7.87675 18.5573 7.951 18.6467L8.03482 18.7466C8.13466 18.8644 8.23647 18.9814 8.34054 19.0959L8.34672 19.1024L8.35854 19.1153C8.45979 19.2261 8.56385 19.3341 8.66904 19.4427L8.7686 19.5431C8.85016 19.6252 8.93285 19.7059 9.01666 19.7864L9.11819 19.8828C9.22985 19.988 9.34263 20.0912 9.45794 20.1925L9.46357 20.1967L9.52263 20.2473C9.62416 20.3351 9.72766 20.4225 9.83172 20.5083L9.95969 20.6101C10.0446 20.6782 10.1307 20.7454 10.2173 20.8115L10.3548 20.9161C10.4505 20.9865 10.5467 21.0556 10.6437 21.1234L10.7492 21.1982L10.7781 21.2188C10.8704 21.2823 10.9646 21.3431 11.0588 21.4041L11.1803 21.4851C11.3246 21.5765 11.4714 21.6668 11.6196 21.754L11.7411 21.8226C11.8503 21.8853 11.9597 21.9469 12.0708 22.0071L12.253 22.1016L12.4893 22.2245ZM13.5279 11.8759C13.7583 12.2061 14.0133 12.5987 14.3191 12.8642C14.4299 12.9863 14.5458 13.105 14.6639 13.2223L14.755 13.3117C14.87 13.4231 14.9868 13.5325 15.1071 13.6391L15.1218 13.6515L15.1251 13.6551C15.2587 13.7721 15.3965 13.8846 15.5366 13.9954L15.6303 14.0685C15.7709 14.1763 15.914 14.282 16.0608 14.383L16.0735 14.3923L16.2698 14.5216L16.3632 14.5835C16.4681 14.6505 16.5741 14.7163 16.6824 14.7787L16.7274 14.8049C16.8205 14.8586 16.915 14.9115 17.0095 14.9626L17.1096 15.0152L17.3071 15.1173L17.3369 15.1308C17.4724 15.1975 17.6091 15.2616 17.7486 15.3226L17.8395 15.36C17.9508 15.4073 18.0636 15.4537 18.1767 15.497L18.3213 15.5499C18.4242 15.5881 18.5271 15.623 18.6312 15.6576L18.7715 15.7026C18.9195 15.7485 19.0654 15.8064 19.2196 15.832C27.157 17.1474 28.9896 11.0355 28.9896 11.0355C27.3376 13.4146 24.1386 14.5495 20.7248 13.6635C20.574 13.6239 20.4241 13.5806 20.2754 13.5336L20.1401 13.49C20.0346 13.456 19.9297 13.4197 19.8257 13.3817L19.6839 13.3289C19.5703 13.2852 19.4574 13.2398 19.3453 13.1925L19.2542 13.1536C19.1146 13.0929 18.9765 13.0287 18.8402 12.961L18.6323 12.8552L18.5125 12.7936C18.4242 12.7458 18.3364 12.6958 18.2498 12.6454L18.1871 12.6097C18.0798 12.5471 17.9736 12.4825 17.8687 12.4159L17.7728 12.3515L17.5669 12.2154C17.4214 12.1144 17.2784 12.0099 17.138 11.9018L17.0416 11.8256C15.5473 10.6463 14.3629 9.03361 13.7996 7.2052C13.2095 5.30958 13.3367 3.18108 14.359 1.45392L13.1029 3.22748C11.5656 5.43952 11.6492 8.40136 12.8484 10.7411C13.049 11.1343 13.276 11.5134 13.5279 11.8759ZM21.8943 9.13908L22.0914 9.20742L22.1783 9.23498C22.272 9.26423 22.3645 9.29855 22.461 9.31655C26.8437 10.1634 28.0328 7.06739 28.3492 6.61177C27.3078 8.11111 25.5578 8.47083 23.4105 7.94967C23.2347 7.90493 23.0612 7.85143 22.8907 7.78936C22.6808 7.71476 22.475 7.62934 22.2739 7.53342C21.8924 7.34984 21.53 7.12872 21.1923 6.87333C19.2708 5.41505 18.0771 2.63433 19.3309 0.369141L18.6526 1.30402C17.7464 2.63798 17.6572 4.29455 18.2861 5.76717C18.9493 7.33092 20.3083 8.55717 21.8943 9.13908ZM17.6637 27.0831H16.4751C16.4415 27.0844 16.4092 27.0965 16.383 27.1177C16.3568 27.1388 16.3381 27.1678 16.3297 27.2004L15.9078 29.1523L15.486 31.1041C15.4777 31.1367 15.4591 31.1658 15.4329 31.1869C15.4068 31.208 15.3745 31.2202 15.3408 31.2214H14.4996C13.6674 31.2214 13.7636 30.6457 13.934 29.8571L13.9391 29.8332L13.9577 29.7336L13.961 29.715L13.999 29.5125L14.0398 29.2957L14.0831 29.0749L14.2749 28.1378L14.467 27.2007C14.4707 27.1864 14.4709 27.1714 14.4678 27.157C14.4646 27.1425 14.4581 27.129 14.4488 27.1176C14.4394 27.1061 14.4275 27.097 14.4141 27.091C14.4006 27.0849 14.3859 27.0821 14.3711 27.0828H13.1513C13.1177 27.0841 13.0854 27.0962 13.0593 27.1174C13.0333 27.1386 13.0148 27.1677 13.0068 27.2004L12.7443 28.4446L12.4822 29.6892L12.4817 29.6909L12.4575 29.8067C12.1554 31.1857 12.2353 32.5011 13.8772 32.5425L13.925 32.5433H16.5021C16.5357 32.542 16.568 32.5299 16.5942 32.5088C16.6203 32.4876 16.639 32.4586 16.6473 32.426L17.203 29.8135L17.7588 27.2007C17.7725 27.136 17.7298 27.0834 17.6637 27.0831ZM4.93544 27.0693H3.63044C3.59673 27.0706 3.56432 27.0827 3.53795 27.1038C3.51159 27.1248 3.49265 27.1537 3.48391 27.1863L3.36016 27.7325L3.23641 28.2787C3.22207 28.3431 3.26397 28.3957 3.33007 28.3957H4.64519C4.67887 28.3945 4.71125 28.3824 4.7375 28.3612C4.76375 28.3401 4.78248 28.3111 4.79088 28.2784L4.91041 27.7325L5.02994 27.1866C5.04372 27.1222 5.00154 27.0693 4.93544 27.0693ZM4.55688 28.7692H3.24147C3.20777 28.7706 3.17538 28.7826 3.14903 28.8037C3.12267 28.8247 3.10372 28.8536 3.09494 28.8862L2.91016 29.7046L2.72566 30.5228L2.67419 30.7574L2.49672 31.5927L2.31954 32.4283C2.30575 32.4927 2.27735 32.5967 2.25625 32.6592C2.25625 32.6592 2.01044 33.3904 1.59729 33.382L1.54554 33.3809L1.18807 33.3744C1.15449 33.3752 1.12177 33.3867 1.09524 33.4073C1.06871 33.4279 1.04949 33.4565 1.04041 33.4889L0.904005 34.0623L0.76788 34.6355C0.752411 34.6996 0.794036 34.7525 0.859567 34.7536C1.09385 34.7565 1.61866 34.7624 1.93619 34.7624C2.9681 34.7624 3.51232 34.1906 3.86079 32.5453L4.26888 30.657L4.65166 28.8859C4.66544 28.8221 4.62269 28.7692 4.55688 28.7692ZM28.7773 28.3265L28.7227 28.1012L28.669 27.8706L28.6417 27.7542C28.5348 27.3388 28.2213 27.0994 27.5401 27.0994L26.4798 27.0983L25.5033 27.0969H24.4044C24.3708 27.0981 24.3386 27.1102 24.3124 27.1314C24.2863 27.1525 24.2678 27.1816 24.2596 27.2142L24.2109 27.4437L24.1535 27.7148L24.1375 27.791L23.6428 30.1085L23.1731 32.3085C23.159 32.3731 23.1545 32.4525 23.1624 32.4845C23.1703 32.5169 23.2971 32.5433 23.3629 32.5433H24.3541C24.4202 32.5433 24.5037 32.5315 24.5397 32.5169C24.5757 32.5022 24.6288 32.3726 24.6421 32.3082L24.8181 31.4366L24.9945 30.5647L24.9948 30.5633L25.0184 30.4471L25.2321 29.4459L25.4208 28.5616C25.4292 28.5291 25.4478 28.5001 25.4738 28.479C25.4999 28.4579 25.5321 28.4457 25.5657 28.4444L28.6845 28.443C28.7506 28.4435 28.7922 28.3909 28.7773 28.3265ZM32.7921 26.2903L32.5519 26.2911H31.5538C31.5172 26.2932 31.4815 26.3031 31.4491 26.3202C31.4168 26.3374 31.3885 26.3613 31.3662 26.3904L29.1587 29.6242C29.1215 29.6788 29.0791 29.6709 29.0644 29.6068L28.9019 28.8944C28.8931 28.8617 28.8741 28.8328 28.8477 28.8117C28.8213 28.7906 28.7888 28.7786 28.7551 28.7774H27.3362C27.2701 28.7774 27.231 28.8291 27.249 28.8924L27.8849 31.1202C27.9029 31.1837 27.9043 31.2878 27.888 31.3519L27.6109 32.43C27.5943 32.4941 27.6348 32.5461 27.7009 32.5461H29.1035C29.1375 32.5447 29.1701 32.5328 29.1969 32.512C29.2238 32.4912 29.2434 32.4625 29.2532 32.43L29.5305 31.3519C29.5524 31.2759 29.5869 31.2042 29.6326 31.1396L33.2163 26.3834C33.2562 26.3305 33.2345 26.2875 33.1687 26.288L32.7921 26.2903ZM21.5179 29.08V29.0789C21.5131 29.1128 21.4963 29.144 21.4706 29.1667C21.4449 29.1894 21.4119 29.2022 21.3776 29.2029H19.5784C19.516 29.2029 19.4845 29.1607 19.4938 29.1084L19.4955 29.1042L19.4943 29.1047L19.4952 29.0988L19.5033 29.0682C19.6752 28.6114 20.0251 28.3116 20.6829 28.3116C21.4237 28.3113 21.5683 28.673 21.5179 29.08ZM20.99 27.0032C18.6807 27.0032 18.1334 28.405 17.8263 29.82C17.5194 31.2622 17.5456 32.6102 19.9356 32.6102H20.2253L20.2973 32.61H20.3142L20.6011 32.6091H20.6061C21.2373 32.6066 21.8703 32.6018 22.1266 32.5998C22.16 32.5981 22.1919 32.5857 22.2177 32.5645C22.2435 32.5432 22.2617 32.5142 22.2697 32.4817L22.3665 32.0089L22.3853 31.917L22.5006 31.3528C22.5043 31.3385 22.5046 31.3235 22.5014 31.3091C22.4982 31.2947 22.4917 31.2812 22.4824 31.2698C22.4731 31.2583 22.4612 31.2492 22.4477 31.2432C22.4342 31.2372 22.4195 31.2345 22.4047 31.2352H20.2563C19.4015 31.2352 19.1478 31.0082 19.2415 30.3405H22.6758L22.6756 30.3408L22.6778 30.3405C22.705 30.3394 22.7312 30.3304 22.7534 30.3147C22.7756 30.299 22.7928 30.2772 22.803 30.252L22.8111 30.2221L22.8108 30.2224C23.3208 28.299 23.1745 27.0035 20.99 27.0032ZM10.0747 29.0727L10.0421 29.1877L9.78279 30.1071L9.52347 31.026C9.51287 31.0585 9.49255 31.087 9.46525 31.1077C9.43795 31.1284 9.40497 31.1402 9.37076 31.1415H7.99825C6.95707 31.1415 6.70338 30.327 6.95707 29.1261C7.21047 27.8976 7.70744 27.134 8.73232 27.0567C10.1329 26.9509 10.4131 27.9359 10.0747 29.0727ZM11.0163 31.071C11.0163 31.071 11.6635 29.4993 11.8103 28.592C12.0108 27.3773 11.4025 25.615 9.05294 25.615C6.71688 25.615 5.70213 27.2971 5.31513 29.1261C4.92813 30.9683 5.43522 32.5835 7.75807 32.5703L9.59069 32.5635L11.3032 32.5574C11.3372 32.5557 11.3698 32.5436 11.3966 32.5228C11.4235 32.5019 11.4433 32.4734 11.4534 32.4409L11.7518 31.303C11.7684 31.2389 11.7282 31.1865 11.6621 31.186L11.3761 31.1843L11.09 31.1826C11.0341 31.1823 11.002 31.1458 11.0088 31.0977L11.0163 31.071ZM22.5813 30.0188C22.5814 30.0291 22.5793 30.0394 22.5754 30.0489C22.5715 30.0585 22.5657 30.0672 22.5584 30.0745C22.5511 30.0819 22.5424 30.0877 22.5329 30.0916C22.5233 30.0956 22.5131 30.0977 22.5027 30.0977C22.4924 30.0977 22.4822 30.0957 22.4726 30.0917C22.463 30.0878 22.4543 30.082 22.447 30.0747C22.4397 30.0674 22.4339 30.0588 22.4299 30.0492C22.4259 30.0397 22.4239 30.0294 22.4238 30.0191C22.4238 29.9982 22.4321 29.9781 22.4468 29.9634C22.4616 29.9486 22.4816 29.9402 22.5025 29.9402C22.5233 29.9402 22.5434 29.9484 22.5582 29.9632C22.573 29.9779 22.5813 29.9979 22.5813 30.0188Z" fill="white"/>
</svg>
