<svg width="36" height="36" viewBox="0 0 36 36" fill="none" xmlns="http://www.w3.org/2000/svg">
<path fill-rule="evenodd" clip-rule="evenodd" d="M36 0H0V36H36V0ZM15.0027 5.25098C13.5661 5.25098 12.1883 5.82167 11.1725 6.83752C10.1566 7.85337 9.58594 9.23115 9.58594 10.6678C9.58594 12.1044 10.1566 13.4822 11.1725 14.498C11.4986 14.8242 11.8621 15.1044 12.2528 15.3346C11.8622 15.5648 11.499 15.8449 11.173 16.1709C10.1573 17.1866 9.58664 18.5642 9.58664 20.0007C9.58664 21.4371 10.1573 22.8147 11.173 23.8304C11.4988 24.1562 11.8618 24.4362 12.252 24.6663C12.1644 24.7179 12.0781 24.772 11.9932 24.8288C11.1025 25.4238 10.4084 26.2696 9.99837 27.2592C9.58839 28.2487 9.48104 29.3377 9.68989 30.3882C9.89874 31.4388 10.4144 32.4039 11.1717 33.1614C11.929 33.9189 12.8939 34.4349 13.9444 34.644C14.9949 34.8532 16.0839 34.7462 17.0736 34.3365C18.0633 33.9268 18.9092 33.2329 19.5046 32.3424C20.0999 31.4519 20.4178 30.405 20.4181 29.3338V29.3336V25.4168H20.4188V24.6668V23.7424C20.4471 23.772 20.4757 23.8013 20.5047 23.8303C21.5205 24.8461 22.8983 25.4168 24.3349 25.4168C25.7716 25.4168 27.1493 24.8461 28.1652 23.8303C29.181 22.8144 29.7517 21.4366 29.7517 20C29.7517 18.5634 29.181 17.1856 28.1652 16.1697C27.8389 15.8435 27.4753 15.5631 27.0845 15.3329C27.4741 15.103 27.8365 14.8233 28.1618 14.498C29.1776 13.4822 29.7483 12.1044 29.7483 10.6678C29.7483 9.23115 29.1776 7.85337 28.1618 6.83752C27.1459 5.82167 25.7682 5.25098 24.3315 5.25098H20.4188H19.6688H19.6654H18.9154H15.0027ZM18.9154 6.75098H15.0027C13.9639 6.75098 12.9677 7.16364 12.2331 7.89818C11.4986 8.63272 11.0859 9.62898 11.0859 10.6678C11.0859 11.7066 11.4986 12.7028 12.2331 13.4374C12.9677 14.1719 13.9639 14.5846 15.0027 14.5846H18.9154V6.75098ZM18.9154 16.0846H15.0027C13.9641 16.0846 12.968 16.4972 12.2336 17.2316C11.4992 17.966 11.0866 18.9621 11.0866 20.0007C11.0866 21.0393 11.4992 22.0354 12.2336 22.7698C12.968 23.5042 13.9641 23.9168 15.0027 23.9168H18.9188V20.087C18.9184 20.058 18.9181 20.029 18.9181 20C18.9181 19.971 18.9184 19.942 18.9188 19.913V16.0846H18.9154ZM20.4188 16.0846V16.2576C20.4471 16.228 20.4757 16.1987 20.5047 16.1697C20.5334 16.141 20.5625 16.1126 20.5918 16.0846H20.4188ZM24.4121 14.5837C24.3864 14.5834 24.3607 14.5832 24.3349 14.5832C24.2941 14.5832 24.2534 14.5837 24.2127 14.5846H20.4188V6.75098H24.3315C25.3703 6.75098 26.3666 7.16364 27.1011 7.89818C27.8357 8.63272 28.2483 9.62898 28.2483 10.6678C28.2483 11.7066 27.8357 12.7028 27.1011 13.4374C26.3856 14.1529 25.4217 14.563 24.4121 14.5837ZM24.231 16.0846C23.2299 16.1111 22.2754 16.5204 21.5653 17.2304C20.8483 17.9475 20.4379 18.914 20.4188 19.926V20.074C20.4379 21.086 20.8483 22.0525 21.5653 22.7696C22.2999 23.5041 23.2961 23.9168 24.3349 23.9168C25.3737 23.9168 26.37 23.5041 27.1045 22.7696C27.8391 22.0351 28.2517 21.0388 28.2517 20C28.2517 18.9612 27.8391 17.9649 27.1045 17.2304C26.3883 16.5142 25.4233 16.104 24.4127 16.084C24.3856 16.0844 24.3586 16.0846 24.3315 16.0846H24.231ZM15.002 25.4175C14.2268 25.4175 13.4698 25.6462 12.8265 26.076C12.1825 26.5063 11.6806 27.1178 11.3841 27.8333C11.0877 28.5488 11.0101 29.3361 11.1611 30.0958C11.3121 30.8554 11.685 31.5532 12.2325 32.1009C12.7801 32.6486 13.4778 33.0217 14.2373 33.1729C14.9969 33.3241 15.7843 33.2468 16.4999 32.9505C17.2154 32.6543 17.8271 32.1526 18.2576 31.5087C18.688 30.8649 18.9179 30.108 18.9181 29.3336V29.3334V25.4175H15.002Z" fill="white"/>
</svg>
