<svg width="36" height="36" viewBox="0 0 36 36" fill="none" xmlns="http://www.w3.org/2000/svg">
<g clip-path="url(#clip0_303_1574)">
<path d="M0 0V36H36V0H0ZM18.5692 16.7202C17.2711 18.5916 14.6725 19.536 11.0863 19.3667V26.1963H8.02477V7.27734L12.6564 7.19888C16.5064 7.05403 19.4579 9.09323 19.4861 13.165C19.4529 14.5988 19.2112 15.7946 18.5692 16.7202ZM28.5923 14.6566C28.5886 14.7784 28.5263 14.8165 28.4353 14.8136C27.2929 14.71 26.1155 14.8839 25.1383 15.1276V26.1963H22.0766V15.049C22.0889 14.3884 22.0526 13.9088 21.9981 13.4004C21.9866 13.3423 21.9848 13.2203 22.1551 13.1649C23.6856 12.6098 25.9974 11.9398 28.4353 11.9874C28.5316 11.9869 28.5915 12.0303 28.5923 12.1444V14.6566ZM16.346 13.2435C16.3496 14.1877 16.1934 14.8625 15.8331 15.3463C14.9051 16.5925 13.0762 16.5712 12.4995 16.6191H11.0863V9.94648H12.7349C15.4131 9.96525 16.3052 11.3202 16.346 13.2435Z" fill="white"/>
</g>
<defs>
<clipPath id="clip0_303_1574">
<rect width="36" height="36" fill="white"/>
</clipPath>
</defs>
</svg>
