<svg width="36" height="36" viewBox="0 0 36 36" fill="none" xmlns="http://www.w3.org/2000/svg">
<g clip-path="url(#clip0_303_1570)">
<path fill-rule="evenodd" clip-rule="evenodd" d="M36 36H0V0H36V36ZM28.5757 15.2588V12.4667C28.1159 12.2619 25.4826 11.5087 23.4023 12.3025C20.4055 13.4459 20.5132 16.8905 21.6503 18.2424C23.1237 19.9941 26.7889 20.6471 26.1892 22.3664C25.8786 23.2567 24.4287 23.4117 23.1504 23.1128C21.96 22.8345 20.925 22.1294 20.925 22.1294V25.0857C20.925 25.0857 21.948 25.656 23.2037 25.7917C24.8134 25.9656 26.831 25.6373 27.8419 24.7388C29.6411 23.1394 29.9175 19.5964 26.5077 17.9511C23.6702 16.5821 23.7169 16.1914 23.7368 15.4892C23.7635 14.5487 25.7382 13.9698 28.5757 15.2588ZM13.2743 7.42324C15.6352 7.50537 19.1047 8.59345 19.1047 13.2332C19.1047 17.8729 14.8597 19.3954 10.9863 19.0636V25.6331H8.1007V7.48477C8.1007 7.48477 10.9133 7.34112 13.2743 7.42324ZM14.0235 16.1895C15.2678 15.7354 16.0765 14.7594 16.0765 13.2434C16.0765 11.6359 15.2535 10.5474 13.9948 10.24C12.6317 9.90689 10.9862 10.1032 10.9862 10.1032V16.4344C10.9862 16.4344 13.264 16.4666 14.0235 16.1895Z" fill="white"/>
</g>
<defs>
<clipPath id="clip0_303_1570">
<rect width="36" height="36" fill="white"/>
</clipPath>
</defs>
</svg>
