<svg width="36" height="36" viewBox="0 0 36 36" fill="none" xmlns="http://www.w3.org/2000/svg">
<g clip-path="url(#clip0_303_1576)">
<path d="M27.3646 15.0709C27.6936 15.6974 27.8039 16.3657 27.794 17.057H23.0418C23.3305 15.1973 24.095 14.0631 25.6121 14.0972C26.4945 14.0972 27.0786 14.4222 27.3646 15.0709ZM9.87877 17.6022H13.9289L11.8259 9.65763C11.5618 11.4546 10.6357 14.5162 9.87877 17.6022ZM36 0V36H0V0H36ZM19.2947 25.7026L13.727 6.93155H9.87877C9.87877 7.3478 9.85205 7.80173 9.80086 7.98307C9.74855 8.1656 9.72295 8.33358 9.72295 8.48932L4.80487 25.7026H7.71469L9.09984 20.4062H14.5521L16.0767 25.7026H19.2947ZM30.6749 17.2128C30.6749 15.9666 30.3109 14.7204 29.5845 13.4742C28.8567 12.228 27.5593 11.6049 25.69 11.6049C23.8719 11.6049 22.4577 12.3192 21.4452 13.7468C19.5351 16.2656 19.3359 21.0234 21.3673 23.7943C22.3275 25.2231 23.9242 25.9363 26.1574 25.9363C27.3803 25.9332 28.5465 25.7857 29.5844 25.3131C29.7056 25.1884 29.7368 25.1292 29.7402 24.9237V22.8207C29.7367 22.6749 29.6568 22.6688 29.5066 22.665C27.9868 23.4077 25.7777 23.3813 24.6601 22.7369C23.6201 22.1373 23.0088 20.8841 23.0418 19.3937H27.4814C28.2604 19.3937 28.8835 19.3815 29.3508 19.3548C29.8181 19.3292 30.1551 19.2902 30.3633 19.2379C30.4144 19.2379 30.4534 19.2257 30.4801 19.199L30.597 19.0821C30.597 18.9264 30.6091 18.6805 30.6359 18.3421C30.6615 18.0051 30.6749 17.629 30.6749 17.2128Z" fill="white"/>
</g>
<defs>
<clipPath id="clip0_303_1576">
<rect width="36" height="36" fill="white"/>
</clipPath>
</defs>
</svg>
