<svg width="39" height="20" viewBox="0 0 39 20" fill="none" xmlns="http://www.w3.org/2000/svg">
<path d="M30.68 3.16C31.9467 3.16 33.1133 3.37333 34.18 3.8C35.26 4.22667 36.1133 4.82 36.74 5.58C37.3667 6.34 37.68 7.21333 37.68 8.2C37.68 9 37.4867 9.68667 37.1 10.26C36.7133 10.8333 36.22 11.3 35.62 11.66L34.56 12.26C33.9867 12.58 33.6067 12.8 33.42 12.92C33.1133 13.1067 32.9 13.3133 32.78 13.54C32.66 13.7667 32.6 14.0333 32.6 14.34H28.02C28.02 13.3267 28.26 12.48 28.74 11.8C29.22 11.1067 30.0267 10.5067 31.16 10C31.6667 9.77333 32.0333 9.52667 32.26 9.26C32.5 8.98 32.62 8.66667 32.62 8.32C32.62 7.93333 32.4333 7.6 32.06 7.32C31.7 7.04 31.24 6.9 30.68 6.9C29.92 6.9 29.3267 7.08667 28.9 7.46C28.4867 7.83333 28.28 8.36 28.28 9.04C28.28 9.30667 28.32 9.61333 28.4 9.96C27.3333 9.65333 25.74 9.5 23.62 9.5C23.6067 9.38 23.6 9.21333 23.6 9C23.6 7.88 23.8933 6.88 24.48 6C25.08 5.10667 25.9133 4.41333 26.98 3.92C28.06 3.41333 29.2933 3.16 30.68 3.16ZM32.62 19.4H27.98V15.84H32.62V19.4Z" fill="black"/>
<path d="M-3.27835e-07 12.5L11.25 6.00481L11.25 18.9952L-3.27835e-07 12.5Z" fill="black"/>
</svg>
