<svg width="36" height="36" viewBox="0 0 36 36" fill="none" xmlns="http://www.w3.org/2000/svg">
<g clip-path="url(#clip0_303_1076)">
<path d="M0 0V36H36V0H0ZM19.5917 28.0761C19.5917 31.5797 17.5346 33.1791 14.5376 33.1791C11.8299 33.1791 10.2626 31.7816 9.459 30.0857L12.2156 28.422C12.7466 29.3619 13.2287 30.1577 14.3936 30.1577C15.5019 30.1577 16.209 29.7231 16.209 28.0286V16.5291H19.5917V28.0761ZM27.594 33.1791C24.4517 33.1791 22.419 31.6851 21.4303 29.7231L24.1869 28.1327C24.9107 29.3143 25.8583 30.1899 27.522 30.1899C28.9196 30.1899 29.8209 29.4904 29.8209 28.5184C29.8209 27.3613 28.9041 26.9511 27.3536 26.2684L26.5101 25.9071C24.0673 24.8709 22.4524 23.5607 22.4524 20.8041C22.4524 18.2649 24.3887 16.3363 27.4024 16.3363C29.556 16.3363 31.0989 17.0833 32.2084 19.044L29.5727 20.7321C28.9941 19.6959 28.3667 19.2857 27.3947 19.2857C26.4073 19.2857 25.7799 19.9131 25.7799 20.7321C25.7799 21.7453 26.4073 22.1541 27.8614 22.7893L28.7049 23.1506C31.5823 24.3797 33.1971 25.6423 33.1971 28.4696C33.1971 31.5077 30.8019 33.1779 27.5953 33.1779L27.594 33.1791Z" fill="black"/>
</g>
<defs>
<clipPath id="clip0_303_1076">
<rect width="36" height="36" fill="white"/>
</clipPath>
</defs>
</svg>
