<svg width="33" height="37" viewBox="0 0 33 37" fill="none" xmlns="http://www.w3.org/2000/svg">
<path d="M10.3152 0H13.86V1.66192H11.7975V3.32383H13.86V4.98575H10.3152V0ZM14.5681 0H18.1142V1.44608H16.0517V1.73438H18.1142V5.05821H14.5681V3.54121H16.6306V3.25138H14.5681V0ZM18.8237 0H22.3671V1.44608H20.3046V1.73438H22.3671V5.05821H18.8237V3.54121H20.8862V3.25138H18.8237V0Z" fill="black"/>
<path fill-rule="evenodd" clip-rule="evenodd" d="M16.4876 36.9994L6.93962 34.0271L4.125 7.27148H28.875L26.0618 34.024L16.4876 36.9994ZM9.68962 19.3828L9.95225 22.6635H20.0956L19.756 26.9185L16.4918 27.9082H16.489L13.2302 26.9216L13.0213 24.3054H10.0829L10.4926 29.4576L16.4876 31.323L22.4922 29.4576L23.2237 20.2631L23.2952 19.3828L23.8233 12.7398H9.163L9.42975 16.022H20.6168L20.35 19.3828H9.68962Z" fill="black"/>
</svg>
