<svg width="36" height="36" viewBox="0 0 36 36" fill="none" xmlns="http://www.w3.org/2000/svg">
<path d="M13.489 22.2245L13.5433 22.251L13.6401 22.2976C13.7635 22.3564 13.8881 22.4146 14.0138 22.4706L14.0929 22.5058C14.2372 22.569 14.3823 22.6292 14.5291 22.6872L14.6354 22.7288C14.771 22.7817 14.9088 22.8329 15.0469 22.8815L15.0986 22.8992C15.2502 22.9521 15.4032 23.0013 15.5576 23.0494L15.6687 23.0823C15.8257 23.1299 15.9806 23.1864 16.1426 23.2165C26.4234 25.091 29.4095 17.0383 29.4095 17.0383C26.9013 20.3058 22.4494 21.1679 18.2312 20.2082C18.0714 20.1722 17.9162 20.1222 17.7604 20.076L17.6431 20.0406C17.4912 19.994 17.34 19.9449 17.1897 19.8932L17.1276 19.8707C16.9936 19.8233 16.8604 19.7739 16.7279 19.7225L16.616 19.6786C16.471 19.6216 16.3272 19.5618 16.1845 19.4992L16.0982 19.461C15.9762 19.4059 15.8549 19.3495 15.7342 19.2916L15.6288 19.241C15.5343 19.1949 15.4406 19.1457 15.3472 19.0976L15.1594 18.9991C15.0458 18.9381 14.9334 18.875 14.8222 18.8099L14.7082 18.7463C14.5603 18.6588 14.4138 18.569 14.2687 18.4769L14.1502 18.3981C14.0449 18.3305 13.9406 18.2612 13.8375 18.1903L13.7368 18.1194C13.6372 18.0491 13.5388 17.9779 13.4412 17.9056L13.3102 17.8064C13.2204 17.7381 13.1315 17.6687 13.0435 17.5982L12.9246 17.5026C12.8126 17.4107 12.7018 17.3174 12.5921 17.2228L12.5558 17.1921C12.4374 17.0884 12.3208 16.9828 12.206 16.8751L12.1075 16.7804C12.0223 16.6996 11.9388 16.6181 11.8564 16.5345L11.7579 16.4361C11.6535 16.3292 11.5509 16.2206 11.45 16.1104L11.4348 16.0941C11.3284 15.9776 11.2242 15.8591 11.1223 15.7386L11.0405 15.6413C10.9645 15.5499 10.8892 15.4571 10.8157 15.3634L10.7333 15.261C10.6451 15.1471 10.5586 15.0319 10.4737 14.9154C8.13206 11.721 7.29056 7.31517 9.16228 3.69689L7.50318 5.8012C5.37721 8.85642 5.64215 12.8316 7.26581 16.0784L7.38478 16.3093L7.46099 16.4555L7.50824 16.5396L7.5929 16.6912C7.64324 16.7801 7.69471 16.8684 7.74759 16.9567L7.83618 17.1027C7.89468 17.1972 7.95459 17.2905 8.01618 17.3839L8.09268 17.5026C8.17734 17.6286 8.26396 17.7546 8.35312 17.8784L8.36071 17.8882L8.40459 17.9475C8.48193 18.0541 8.56153 18.1593 8.64196 18.2634L8.7314 18.377C8.80312 18.4673 8.87653 18.5573 8.95078 18.6467L9.03459 18.7466C9.13443 18.8644 9.23624 18.9814 9.34031 19.0959L9.34649 19.1024L9.35831 19.1153C9.45956 19.2261 9.56362 19.3341 9.66881 19.4427L9.76837 19.5431C9.84993 19.6252 9.93262 19.7059 10.0164 19.7864L10.118 19.8828C10.2296 19.988 10.3424 20.0912 10.4577 20.1925L10.4633 20.1967L10.5224 20.2473C10.6239 20.3351 10.7274 20.4225 10.8315 20.5083L10.9595 20.6101C11.0444 20.6782 11.1305 20.7454 11.2171 20.8115L11.3546 20.9161C11.4502 20.9865 11.5464 21.0556 11.6435 21.1234L11.7489 21.1982L11.7779 21.2188C11.8702 21.2823 11.9644 21.3431 12.0586 21.4041L12.1801 21.4851C12.3244 21.5765 12.4712 21.6668 12.6194 21.754L12.7409 21.8226C12.85 21.8853 12.9594 21.9469 13.0705 22.0071L13.2528 22.1016L13.489 22.2245ZM14.5277 11.8759C14.758 12.2061 15.0131 12.5987 15.3188 12.8642C15.4297 12.9863 15.5455 13.105 15.6637 13.2223L15.7548 13.3117C15.8698 13.4231 15.9865 13.5325 16.1069 13.6391L16.1215 13.6515L16.1249 13.6551C16.2585 13.7721 16.3963 13.8846 16.5364 13.9954L16.63 14.0685C16.7707 14.1763 16.9138 14.282 17.0606 14.383L17.0733 14.3923L17.2696 14.5216L17.363 14.5835C17.4679 14.6505 17.5739 14.7163 17.6822 14.7787L17.7272 14.8049C17.8203 14.8586 17.9148 14.9115 18.0093 14.9626L18.1094 15.0152L18.3068 15.1173L18.3367 15.1308C18.4722 15.1975 18.6089 15.2616 18.7484 15.3226L18.8392 15.36C18.9506 15.4073 19.0634 15.4537 19.1765 15.497L19.321 15.5499C19.424 15.5881 19.5269 15.623 19.631 15.6576L19.7713 15.7026C19.9192 15.7485 20.0652 15.8064 20.2193 15.832C28.1568 17.1474 29.9894 11.0355 29.9894 11.0355C28.3373 13.4146 25.1384 14.5495 21.7246 13.6635C21.5737 13.6239 21.4239 13.5806 21.2751 13.5336L21.1399 13.49C21.0344 13.456 20.9295 13.4197 20.8254 13.3817L20.6837 13.3289C20.5701 13.2852 20.4572 13.2398 20.3451 13.1925L20.2539 13.1536C20.1143 13.0929 19.9763 13.0287 19.8399 12.961L19.6321 12.8552L19.5123 12.7936C19.424 12.7458 19.3362 12.6958 19.2496 12.6454L19.1869 12.6097C19.0796 12.5471 18.9734 12.4825 18.8685 12.4159L18.7726 12.3515L18.5667 12.2154C18.4212 12.1144 18.2782 12.0099 18.1378 11.9018L18.0413 11.8256C16.5471 10.6463 15.3627 9.03361 14.7994 7.2052C14.2093 5.30958 14.3364 3.18108 15.3588 1.45392L14.1027 3.22748C12.5654 5.43952 12.6489 8.40136 13.8482 10.7411C14.0488 11.1343 14.2758 11.5134 14.5277 11.8759ZM22.894 9.13908L23.0912 9.20742L23.1781 9.23498C23.2717 9.26423 23.3643 9.29855 23.4607 9.31655C27.8435 10.1634 29.0326 7.06739 29.349 6.61177C28.3075 8.11111 26.5576 8.47083 24.4102 7.94967C24.2344 7.90493 24.061 7.85143 23.8905 7.78936C23.6806 7.71476 23.4747 7.62934 23.2737 7.53342C22.8921 7.34984 22.5298 7.12872 22.192 6.87333C20.2705 5.41505 19.0769 2.63433 20.3307 0.369141L19.6523 1.30402C18.7462 2.63798 18.657 4.29455 19.2859 5.76717C19.9491 7.33092 21.3081 8.55717 22.894 9.13908ZM18.6635 27.0831H17.4749C17.4413 27.0844 17.409 27.0965 17.3828 27.1177C17.3566 27.1388 17.3379 27.1678 17.3295 27.2004L16.9076 29.1523L16.4857 31.1041C16.4775 31.1367 16.4588 31.1658 16.4327 31.1869C16.4065 31.208 16.3742 31.2202 16.3406 31.2214H15.4994C14.6672 31.2214 14.7634 30.6457 14.9338 29.8571L14.9389 29.8332L14.9574 29.7336L14.9608 29.715L14.9988 29.5125L15.0396 29.2957L15.0829 29.0749L15.2747 28.1378L15.4668 27.2007C15.4704 27.1864 15.4707 27.1714 15.4675 27.157C15.4644 27.1425 15.4579 27.129 15.4485 27.1176C15.4392 27.1061 15.4273 27.097 15.4138 27.091C15.4003 27.0849 15.3856 27.0821 15.3709 27.0828H14.1511C14.1175 27.0841 14.0852 27.0962 14.0591 27.1174C14.033 27.1386 14.0146 27.1677 14.0065 27.2004L13.7441 28.4446L13.482 29.6892L13.4814 29.6909L13.4572 29.8067C13.1552 31.1857 13.2351 32.5011 14.877 32.5425L14.9248 32.5433H17.5019C17.5355 32.542 17.5678 32.5299 17.594 32.5088C17.6201 32.4876 17.6387 32.4586 17.647 32.426L18.2028 29.8135L18.7585 27.2007C18.7723 27.136 18.7296 27.0834 18.6635 27.0831ZM5.93521 27.0693H4.63021C4.5965 27.0706 4.56409 27.0827 4.53772 27.1038C4.51136 27.1248 4.49242 27.1537 4.48368 27.1863L4.35993 27.7325L4.23618 28.2787C4.22184 28.3431 4.26374 28.3957 4.32984 28.3957H5.64496C5.67864 28.3945 5.71102 28.3824 5.73727 28.3612C5.76353 28.3401 5.78225 28.3111 5.79065 28.2784L5.91018 27.7325L6.02971 27.1866C6.04349 27.1222 6.00131 27.0693 5.93521 27.0693ZM5.55665 28.7692H4.24124C4.20754 28.7706 4.17515 28.7826 4.1488 28.8037C4.12244 28.8247 4.10349 28.8536 4.09471 28.8862L3.90993 29.7046L3.72543 30.5228L3.67396 30.7574L3.49649 31.5927L3.31931 32.4283C3.30553 32.4927 3.27712 32.5967 3.25603 32.6592C3.25603 32.6592 3.01021 33.3904 2.59706 33.382L2.54531 33.3809L2.18784 33.3744C2.15426 33.3752 2.12154 33.3867 2.09501 33.4073C2.06848 33.4279 2.04926 33.4565 2.04018 33.4889L1.90378 34.0623L1.76765 34.6355C1.75218 34.6996 1.79381 34.7525 1.85934 34.7536C2.09362 34.7565 2.61843 34.7624 2.93596 34.7624C3.96787 34.7624 4.51209 34.1906 4.86056 32.5453L5.26865 30.657L5.65143 28.8859C5.66521 28.8221 5.62246 28.7692 5.55665 28.7692ZM29.7771 28.3265L29.7225 28.1012L29.6688 27.8706L29.6415 27.7542C29.5346 27.3388 29.221 27.0994 28.5398 27.0994L27.4795 27.0983L26.503 27.0969H25.4042C25.3706 27.0981 25.3383 27.1102 25.3122 27.1314C25.2861 27.1525 25.2675 27.1816 25.2593 27.2142L25.2107 27.4437L25.1533 27.7148L25.1373 27.791L24.6426 30.1085L24.1729 32.3085C24.1588 32.3731 24.1543 32.4525 24.1622 32.4845C24.1701 32.5169 24.2969 32.5433 24.3627 32.5433H25.3538C25.4199 32.5433 25.5035 32.5315 25.5395 32.5169C25.5755 32.5022 25.6286 32.3726 25.6418 32.3082L25.8179 31.4366L25.9942 30.5647L25.9945 30.5633L26.0182 30.4471L26.2319 29.4459L26.4206 28.5616C26.4289 28.5291 26.4475 28.5001 26.4736 28.479C26.4997 28.4579 26.5319 28.4457 26.5655 28.4444L29.6842 28.443C29.7503 28.4435 29.792 28.3909 29.7771 28.3265ZM33.7919 26.2903L33.5517 26.2911H32.5536C32.517 26.2932 32.4813 26.3031 32.4489 26.3202C32.4165 26.3374 32.3882 26.3613 32.366 26.3904L30.1584 29.6242C30.1213 29.6788 30.0788 29.6709 30.0642 29.6068L29.9016 28.8944C29.8929 28.8617 29.8739 28.8328 29.8475 28.8117C29.8211 28.7906 29.7886 28.7786 29.7548 28.7774H28.3359C28.2698 28.7774 28.2307 28.8291 28.2487 28.8924L28.8846 31.1202C28.9026 31.1837 28.9041 31.2878 28.8877 31.3519L28.6107 32.43C28.5941 32.4941 28.6346 32.5461 28.7007 32.5461H30.1033C30.1372 32.5447 30.1699 32.5328 30.1967 32.512C30.2235 32.4912 30.2432 32.4625 30.2529 32.43L30.5302 31.3519C30.5522 31.2759 30.5867 31.2042 30.6323 31.1396L34.216 26.3834C34.256 26.3305 34.2343 26.2875 34.1685 26.288L33.7919 26.2903ZM22.5177 29.08V29.0789C22.5128 29.1128 22.4961 29.144 22.4703 29.1667C22.4446 29.1894 22.4117 29.2022 22.3774 29.2029H20.5782C20.5158 29.2029 20.4843 29.1607 20.4936 29.1084L20.4952 29.1042L20.4941 29.1047L20.495 29.0988L20.5031 29.0682C20.675 28.6114 21.0248 28.3116 21.6827 28.3116C22.4235 28.3113 22.5681 28.673 22.5177 29.08ZM21.9898 27.0032C19.6805 27.0032 19.1332 28.405 18.826 29.82C18.5192 31.2622 18.5453 32.6102 20.9354 32.6102H21.2251L21.2971 32.61H21.314L21.6008 32.6091H21.6059C22.237 32.6066 22.8701 32.6018 23.1263 32.5998C23.1597 32.5981 23.1917 32.5857 23.2175 32.5645C23.2433 32.5432 23.2615 32.5142 23.2695 32.4817L23.3662 32.0089L23.3851 31.917L23.5004 31.3528C23.5041 31.3385 23.5043 31.3235 23.5012 31.3091C23.498 31.2947 23.4915 31.2812 23.4822 31.2698C23.4728 31.2583 23.4609 31.2492 23.4474 31.2432C23.434 31.2372 23.4192 31.2345 23.4045 31.2352H21.256C20.4013 31.2352 20.1476 31.0082 20.2413 30.3405H23.6756L23.6753 30.3408L23.6776 30.3405C23.7048 30.3394 23.731 30.3304 23.7532 30.3147C23.7754 30.299 23.7926 30.2772 23.8027 30.252L23.8109 30.2221L23.8106 30.2224C24.3205 28.299 24.1743 27.0035 21.9898 27.0032ZM11.0745 29.0727L11.0419 29.1877L10.7826 30.1071L10.5232 31.026C10.5126 31.0585 10.4923 31.087 10.465 31.1077C10.4377 31.1284 10.4047 31.1402 10.3705 31.1415H8.99803C7.95684 31.1415 7.70315 30.327 7.95684 29.1261C8.21024 27.8976 8.70721 27.134 9.73209 27.0567C11.1327 26.9509 11.4128 27.9359 11.0745 29.0727ZM12.0161 31.071C12.0161 31.071 12.6633 29.4993 12.8101 28.592C13.0106 27.3773 12.4023 25.615 10.0527 25.615C7.71665 25.615 6.7019 27.2971 6.3149 29.1261C5.9279 30.9683 6.43499 32.5835 8.75784 32.5703L10.5905 32.5635L12.303 32.5574C12.3369 32.5557 12.3695 32.5436 12.3964 32.5228C12.4233 32.5019 12.4431 32.4734 12.4532 32.4409L12.7516 31.303C12.7682 31.2389 12.728 31.1865 12.6619 31.186L12.3758 31.1843L12.0898 31.1826C12.0338 31.1823 12.0018 31.1458 12.0085 31.0977L12.0161 31.071ZM23.5811 30.0188C23.5811 30.0291 23.5791 30.0394 23.5752 30.0489C23.5712 30.0585 23.5655 30.0672 23.5582 30.0745C23.5509 30.0819 23.5422 30.0877 23.5326 30.0916C23.5231 30.0956 23.5128 30.0977 23.5025 30.0977C23.4922 30.0977 23.4819 30.0957 23.4724 30.0917C23.4628 30.0878 23.4541 30.082 23.4468 30.0747C23.4395 30.0674 23.4336 30.0588 23.4297 30.0492C23.4257 30.0397 23.4236 30.0294 23.4236 30.0191C23.4236 29.9982 23.4318 29.9781 23.4466 29.9634C23.4613 29.9486 23.4813 29.9402 23.5022 29.9402C23.5231 29.9402 23.5432 29.9484 23.558 29.9632C23.5727 29.9779 23.5811 29.9979 23.5811 30.0188Z" fill="black"/>
</svg>
