<svg width="36" height="37" viewBox="0 0 36 37" fill="none" xmlns="http://www.w3.org/2000/svg">
<g clip-path="url(#clip0_303_1065)">
<mask id="mask0_303_1065" style="mask-type:luminance" maskUnits="userSpaceOnUse" x="0" y="0" width="36" height="37">
<path d="M0 0H36V37H0V0Z" fill="white"/>
</mask>
<g mask="url(#mask0_303_1065)">
<path d="M7.62 0H9.243V1.64804H10.728V0H12.351V4.98883H10.728V3.31921H9.243V4.98883H7.6215L7.62 0ZM14.484 1.65421H13.056V0H17.5365V1.65421H16.107V4.98883H14.484V1.65421ZM18.2475 0H19.9395L20.9805 1.75287L22.02 0H23.712V4.98883H22.0965V2.516L20.9805 4.29046H20.952L19.8345 2.51754V4.98883H18.2475V0ZM24.519 0H26.1435V3.34079H28.4235V4.99038H24.519V0Z" fill="black"/>
<path fill-rule="evenodd" clip-rule="evenodd" d="M7.569 34.0271L4.5 7.27148H31.5L28.4295 34.024L17.985 36.9994L7.569 34.0271ZM13.7745 19.3813L13.4835 16.0204H25.701L25.986 12.7398H9.996L10.857 22.6635H21.9225L21.552 26.9185L17.991 27.9082H17.988L14.433 26.9216L14.205 24.3054H10.998L11.445 29.4576L17.985 31.323L24.5355 29.4576L25.3335 20.2631L25.4115 19.3828L13.7745 19.3813Z" fill="black"/>
</g>
</g>
<defs>
<clipPath id="clip0_303_1065">
<rect width="36" height="37" fill="white"/>
</clipPath>
</defs>
</svg>
