<svg width="36" height="36" viewBox="0 0 36 36" fill="none" xmlns="http://www.w3.org/2000/svg">
<g clip-path="url(#clip0_303_1057)">
<path fill-rule="evenodd" clip-rule="evenodd" d="M12.0972 7.59431H15.8472L21.2397 25.6605H17.9824L16.6411 20.5144H11.3856L10.0169 25.6605H7.1427L12.0973 8.44291L12.0972 7.59431ZM15.902 17.8592L14.0406 10.222L12.1245 17.8591L15.902 17.8592ZM26.8239 12.2342H23.8676V25.6605H26.8239V12.2342ZM25.3076 7.01796C24.3499 7.01796 23.5735 7.78542 23.5735 8.73218C23.5735 9.67894 24.3499 10.4465 25.3076 10.4465C26.2653 10.4465 27.0418 9.67901 27.0418 8.73225C27.0418 7.78549 26.2654 7.01796 25.3076 7.01796ZM36 36H0V0H36V36Z" fill="black"/>
</g>
<defs>
<clipPath id="clip0_303_1057">
<rect width="36" height="36" fill="white"/>
</clipPath>
</defs>
</svg>
