<svg width="36" height="36" viewBox="0 0 36 36" fill="none" xmlns="http://www.w3.org/2000/svg">
<path fill-rule="evenodd" clip-rule="evenodd" d="M36 0H0V36H36V0ZM14.0003 4.25C12.7303 4.25 11.5189 4.77583 10.6306 5.70116C9.74334 6.62545 9.25 7.87275 9.25 9.16721C9.25 10.4617 9.74334 11.709 10.6306 12.6333C10.8882 12.9016 11.173 13.1364 11.4786 13.3345C11.1732 13.5325 10.8885 13.7672 10.631 14.0354C9.74387 14.9596 9.2506 16.2067 9.2506 17.501C9.2506 18.7953 9.74387 20.0424 10.631 20.9666C10.8883 21.2346 11.1726 21.469 11.4776 21.6669C11.4344 21.6949 11.3916 21.7236 11.3493 21.7531C10.568 22.2969 9.9635 23.0665 9.60767 23.9613C9.25192 24.8558 9.1592 25.8384 9.34006 26.7862C9.52095 27.7341 9.96826 28.6088 10.6299 29.2983C11.2919 29.9881 12.1392 30.4616 13.0663 30.6539C13.9938 30.8463 14.9548 30.7476 15.8265 30.3717C16.6978 29.9959 17.4376 29.3617 17.9559 28.554C18.4741 27.7466 18.7491 26.8003 18.7494 25.8347V25.8344V22.4176H18.75V21.6676V21.0867C19.6258 21.937 20.786 22.4172 21.9997 22.4172C23.2697 22.4172 24.4811 21.8914 25.3694 20.9661C26.2567 20.0418 26.75 18.7945 26.75 17.5C26.75 16.2056 26.2567 14.9583 25.3694 14.034C25.1117 13.7656 24.8269 13.5308 24.5213 13.3327C24.8258 13.135 25.1096 12.9008 25.3665 12.6333C26.2537 11.709 26.7471 10.4617 26.7471 9.16721C26.7471 7.87275 26.2537 6.62545 25.3665 5.70116C24.4782 4.77583 23.2668 4.25 21.9968 4.25H18.75H18H17.9971H17.2471H14.0003ZM17.2471 5.75H14.0003C13.1484 5.75 12.3249 6.10226 11.7127 6.73993C11.0996 7.37865 10.75 8.25124 10.75 9.16721C10.75 10.0832 11.0996 10.9558 11.7127 11.5945C12.3249 12.2322 13.1484 12.5844 14.0003 12.5844H17.2471V5.75ZM17.2471 14.0844L14.0003 14.0844C13.1485 14.0844 12.3252 14.4366 11.7131 15.0742C11.1001 15.7128 10.7506 16.5852 10.7506 17.501C10.7506 18.4168 11.1001 19.2892 11.7131 19.9278C12.3252 20.5654 13.1485 20.9176 14.0003 20.9176H17.25V17.5781C17.2496 17.5521 17.2494 17.5261 17.2494 17.5C17.2494 17.474 17.2496 17.4479 17.25 17.4219V14.0844L17.2471 14.0844ZM21.8997 14.0844C21.0836 14.1109 20.3003 14.4601 19.7121 15.0727C19.1137 15.6962 18.7663 16.5424 18.75 17.4343V17.5658C18.7663 18.4577 19.1137 19.3039 19.7121 19.9273C20.3242 20.565 21.1478 20.9172 21.9997 20.9172C22.8516 20.9172 23.6751 20.565 24.2873 19.9273C24.9004 19.2886 25.25 18.416 25.25 17.5C25.25 16.584 24.9004 15.7115 24.2873 15.0727C23.6934 14.4541 22.9006 14.1041 22.0759 14.0837C22.0495 14.0842 22.0232 14.0844 21.9968 14.0844H21.8997ZM18.75 12.5844V5.75H21.9968C22.8487 5.75 23.6722 6.10226 24.2844 6.73993C24.8975 7.37865 25.2471 8.25124 25.2471 9.16721C25.2471 10.0832 24.8975 10.9558 24.2844 11.5945C23.691 12.2126 22.8991 12.5625 22.0753 12.5834C22.0501 12.583 22.0249 12.5828 21.9997 12.5828C21.959 12.5828 21.9183 12.5833 21.8777 12.5844H18.75ZM13.9997 22.4179C13.3632 22.4179 12.7392 22.6133 12.2062 22.9843C11.672 23.3561 11.2512 23.8878 11.0015 24.5156C10.7517 25.1436 10.6859 25.8364 10.8135 26.505C10.9411 27.1735 11.2554 27.7836 11.7122 28.2597C12.1687 28.7354 12.7466 29.0557 13.371 29.1852C13.9951 29.3147 14.6425 29.2487 15.2325 28.9943C15.8229 28.7397 16.3326 28.3062 16.6936 27.7438C17.0546 27.1813 17.2492 26.5167 17.2494 25.8344V25.8342V22.4179H13.9997Z" fill="black"/>
</svg>
